<svg xmlns="http://www.w3.org/2000/svg" aria-hidden="true" style="position:absolute;width:0;height:0;overflow:hidden">
  <defs>
    <!-- Close -->
    <symbol id="icon-close-black" viewBox="0 0 32 32">
      <path d="M32 3.223 28.777 0 16 12.777 3.223 0 0 3.223 12.777 16 0 28.777 3.223 32 16 19.223 28.777 32 32 28.777 19.223 16 32 3.223z"/>
    </symbol>

    <!--  Strategy  -->
    <symbol id="icon-antenna" viewBox="0 0 32 32">
      <path fill="#2e2f42" d="m30.773 22.098-8.443-8.505.937-4.615c.242.094.499.144.758.146h.006a2.159 2.159 0 1 0-2.008-1.435l-4.96.605L8.972.161a.534.534 0 0 0-.377-.16.532.532 0 0 0-.373.155L6.709 1.66a.534.534 0 0 0 0 .754l.814.826a14.943 14.943 0 0 0 2.519 17.663.513.513 0 0 0 .146.098c-.034.18-.051.364-.052.547v6.187h-6.4a2.67 2.67 0 0 0-2.667 2.667v1.067c0 .295.239.533.533.533h24.533a.533.533 0 0 0 .533-.533v-1.067a2.67 2.67 0 0 0-2.667-2.667h-6.4v-2.742a15.09 15.09 0 0 0 3.049.32 14.854 14.854 0 0 0 7.04-1.783l.818.823a.534.534 0 0 0 .377.16.532.532 0 0 0 .373-.155l1.513-1.504a.534.534 0 0 0 0-.754zM23.28 6.233a1.067 1.067 0 1 1 .753 1.822h-.003a1.067 1.067 0 0 1-.747-1.823h-.002zm-1.256 3.505-.598 2.946-1.175-1.182 1.774-1.763zm-.605-.902-1.92 1.909-1.485-1.493 3.405-.415zM24.004 28.8a1.6 1.6 0 0 1 1.6 1.6v.533H2.137V30.4a1.6 1.6 0 0 1 1.6-1.6h20.267zm-7.467-2.133v1.067h-5.333v-1.067h5.333zM11.204 25.6v-4.053c0-1.294 1.196-2.347 2.667-2.347s2.667 1.053 2.667 2.347V25.6h-5.333zm6.4-1.696v-2.357c0-1.882-1.675-3.413-3.733-3.413a3.8 3.8 0 0 0-3.281 1.786A13.87 13.87 0 0 1 8.311 4.033l18.602 18.708a13.818 13.818 0 0 1-9.309 1.163zm11.289-.684L7.836 2.039l.755-.752 7.935 7.98c.004 0 .006.007.01.01l13.115 13.191-.757.752z" style="fill:var(--color1, #2e2f42)"/>
      <path fill="#4d5ae5" d="M13.876 20.267h-.005a1.6 1.6 0 1 0-.004 3.2h.005a1.6 1.6 0 1 0 .004-3.2zm.373 1.978a.534.534 0 0 1-.752-.756.534.534 0 0 1 .373-.155.534.534 0 0 1 .374.911h.005z" style="fill:var(--color2, #4d5ae5)"/>
    </symbol>
    <symbol id="icon-astronaut" viewBox="0 0 32 32">
      <path fill="#4d5ae5" d="M31.974 4.524a.534.534 0 0 0-.43-.363l-1.91-.278-.855-1.731c-.179-.365-.777-.365-.956 0l-.855 1.731-1.91.278a.535.535 0 0 0-.296.91l1.383 1.348-.326 1.903c-.034.2.048.402.212.522a.53.53 0 0 0 .562.04l1.709-.899 1.709.899a.536.536 0 0 0 .775-.563l-.326-1.903 1.383-1.348a.536.536 0 0 0 .135-.547zm-2.463 1.327a.534.534 0 0 0-.153.472l.191 1.114-1-.526a.533.533 0 0 0-.498 0l-1.001.526.191-1.114a.534.534 0 0 0-.153-.472l-.81-.789 1.119-.163a.532.532 0 0 0 .402-.292l.5-1.013.5 1.013a.535.535 0 0 0 .402.292l1.119.163-.809.789zM26.134 20.522h-1.067v1.067h1.067v-1.067zM26.134 22.656h-1.067v1.067h1.067v-1.067zM27.2 21.589h-1.067v1.067H27.2v-1.067zM25.067 21.589H24v1.067h1.067v-1.067zM22.4 26.389h-1.067v1.067H22.4v-1.067zM22.4 28.522h-1.067v1.067H22.4v-1.067zM23.467 27.456H22.4v1.067h1.067v-1.067zM21.333 27.456h-1.067v1.067h1.067v-1.067zM16 24.256h-1.067v1.067H16v-1.067zM16 26.389h-1.067v1.067H16v-1.067zM17.067 25.322H16v1.067h1.067v-1.067zM14.933 25.322h-1.067v1.067h1.067v-1.067zM5.867 6.122H4.8v1.067h1.067V6.122zM5.867 8.255H4.8v1.067h1.067V8.255z" style="fill:var(--color2, #4d5ae5)"/>
      <path fill="#4d5ae5" d="M6.933 7.189H5.866v1.067h1.067V7.189zM4.8 7.189H3.733v1.067H4.8V7.189z" style="fill:var(--color2, #4d5ae5)"/>
      <path fill="#2e2f42" d="M24.715 14.159a1.775 1.775 0 0 0-1.188-.705 1.778 1.778 0 0 0-1.34.352l-1.252.96-1.898 1.417-1.358-.541c2.421-1.086 4.114-3.508 4.114-6.32 0-3.823-3.123-6.933-6.961-6.933s-6.961 3.11-6.961 6.933a6.86 6.86 0 0 0 1.12 3.758l-2.764-.024h-.005c-.009 0-.015.004-.023.005a.515.515 0 0 0-.155.031l-.038.013c-.006.003-.013.003-.019.006l-3.233 1.596-.001.001-1.893.911a.397.397 0 0 0-.063.035 1.779 1.779 0 0 0-.598 2.295c.22.429.595.745 1.056.889a1.776 1.776 0 0 0 1.378-.128l1.388-.738 2.264-1.169 1.357-.008L2.2 22.211l-.002.001-1.339 1.333c-.316.315-.49.732-.49 1.178s.174.863.49 1.179c.325.323.752.485 1.179.485s.854-.162 1.18-.485l1.314-1.309 1.741-1.3.901.897-1.762 1.754-.002.001-1.339 1.333c-.316.315-.49.732-.49 1.178s.174.863.49 1.179c.325.323.753.485 1.18.485s.855-.162 1.18-.485l3.482-3.467.001-.002 1.01-1-.004-.004c.006-.006.015-.009.022-.015l5.166-5.658 3.471.494a.52.52 0 0 0 .262-.033c.018-.006.033-.015.05-.023.019-.01.039-.015.058-.027l3.213-2.133c.012-.008.018-.021.029-.029.013-.01.029-.014.041-.026l1.271-1.191c.662-.62.753-1.635.212-2.362zM2.13 17.77a.714.714 0 0 1-.558.052.717.717 0 0 1-.213-1.26l1.314-.632.449 1.313-.992.527zm3.498-1.828-1.548.8-.439-1.283 2.027-1.001-.04 1.484zm15.099-6.62a5.79 5.79 0 0 1-.599 2.559l-4.181-1.899a1.863 1.863 0 0 0-.788-1.388l1.464-4.86c2.378.756 4.105 2.974 4.105 5.588zm-11.789 0c0-3.235 2.644-5.867 5.894-5.867.253 0 .5.021.745.052l-1.432 4.754c-.019-.001-.037-.006-.057-.006-1.033 0-1.873.837-1.873 1.867s.84 1.867 1.873 1.867c.694 0 1.294-.383 1.618-.945l3.862 1.755a5.894 5.894 0 0 1-4.737 2.39c-3.25 0-5.894-2.632-5.894-5.867zm5.956.8c0 .441-.362.8-.806.8s-.806-.359-.806-.8c0-.441.362-.8.806-.8s.806.359.806.8zM2.465 25.146a.608.608 0 0 1-.854.001.592.592 0 0 1 0-.844l.962-.958.851.848-.959.955zm3.214 3.734a.608.608 0 0 1-.855.001.592.592 0 0 1 0-.844l.963-.959.852.848-.96.955zm3.481-3.469-.002.001-1.765 1.76-.852-.848 1.763-1.755.002-.001c.04-.04.065-.088.09-.135.007-.014.02-.026.026-.04.017-.041.019-.085.026-.129.003-.025.014-.047.014-.073 0-.036-.013-.07-.02-.106-.006-.032-.006-.065-.019-.095a.55.55 0 0 0-.091-.138c-.01-.012-.014-.027-.025-.038h-.001l-.001-.002-1.607-1.6c-.017-.017-.039-.024-.058-.038a.507.507 0 0 0-.087-.058.515.515 0 0 0-.093-.033.507.507 0 0 0-.103-.02.5.5 0 0 0-.095.005.53.53 0 0 0-.104.02.477.477 0 0 0-.094.045c-.02.011-.042.015-.061.029L4.23 23.486l-.901-.897 2.399-2.386 4.361 4.289-.928.919zm6.819-7.017c-.015-.002-.03.004-.045.003a.556.556 0 0 0-.3.075.492.492 0 0 0-.083.061c-.013.011-.028.017-.04.029l-4.698 5.146-4.328-4.257 2.833-2.818a.534.534 0 0 0-.379-.911v-.001l-2.219.013.028-1.607 3.104.027a6.947 6.947 0 0 0 4.981 2.101c.437 0 .864-.045 1.279-.123.04.032.079.065.13.085l2.41.96.152.758.178.885-3.003-.427zm4.041.178-.313-1.558 1.446-1.08.947 1.257-2.08 1.381zm3.754-2.831-.838.785-.931-1.236.831-.637a.735.735 0 0 1 .543-.143.718.718 0 0 1 .48.284.713.713 0 0 1-.085.947z" style="fill:var(--color1, #2e2f42)"/>
      <path fill="#2e2f42" d="m13.602 18.544-2.143-2.133a.534.534 0 0 0-.753 0l-2.142 2.133a.537.537 0 0 0 0 .756l2.142 2.133a.536.536 0 0 0 .753 0l2.143-2.133a.535.535 0 0 0 0-.756zm-2.519 1.759-1.387-1.381 1.387-1.381 1.387 1.381-1.387 1.381zM17.164 5.071l-.258 1.036c.071.018 1.738.452 1.738 2.149h1.067c0-2.017-1.666-2.965-2.547-3.185zM19.711 9.322h-1.067v1.067h1.067V9.322z" style="fill:var(--color1, #2e2f42)"/>
    </symbol>
    <symbol id="icon-clock" viewBox="0 0 32 32">
      <path fill="#2e2f42" d="M31.297 15.301C31.295 6.849 24.442-.002 15.989 0S.686 6.855.688 15.308a15.304 15.304 0 0 0 10.649 14.576.662.662 0 0 0 .529-.065.637.637 0 0 0 .283-.356l3.865-12.25a1.912 1.912 0 1 0-.84-3.635l-5.106-5.107a.637.637 0 0 0-.902.902l5.103 5.109a1.876 1.876 0 0 0 .536 2.309l-3.683 11.673C3.844 25.783.118 17.71 2.799 10.432S13.553-.572 20.831 2.109c7.278 2.681 11.004 10.754 8.323 18.032a14.042 14.042 0 0 1-7.462 7.973l-.398-1.874a.637.637 0 0 0-1.049-.344l-3.837 3.426a.637.637 0 0 0 .231 1.084l4.899 1.564a.638.638 0 0 0 .819-.74l-.391-1.839a15.255 15.255 0 0 0 9.329-14.089zm-15.305-.637a.638.638 0 1 1 0 1.277.638.638 0 0 1 0-1.277zm2.101 14.864 2.184-1.948.603 2.84-2.787-.892z" style="fill:var(--color1, #2e2f42)"/>
      <path fill="#4d5ae5" d="M15.354 3.185V4.46a.638.638 0 1 0 1.276 0V3.185a.638.638 0 0 0-1.276 0zM3.876 14.664a.638.638 0 0 0 0 1.276h1.275a.638.638 0 1 0 0-1.276H3.876zM28.108 15.939a.638.638 0 1 0 0-1.276h-1.275a.638.638 0 0 0 0 1.276h1.275z" style="fill:var(--color2, #4d5ae5)"/>
    </symbol>
    <symbol id="icon-diagram" viewBox="0 0 32 32">
      <path fill="#4d5ae5" d="M14.926 14.965h1.066v4.798h-1.066v-4.797zM19.19 17.097h1.066v2.665H19.19v-2.665zM10.661 18.696h1.066v1.066h-1.066v-1.066zM7.463 18.163h1.066v1.599H7.463v-1.599z" style="fill:var(--color2, #4d5ae5)"/>
      <path fill="#2e2f42" d="M1.599 28.291h25.587a1.6 1.6 0 0 0 1.599-1.599V24.56a1.6 1.6 0 0 0-1.599-1.599h-.533V9.668L29.681 6.8a1.608 1.608 0 1 0-.746-.763L26.654 8.2V6.97a1.6 1.6 0 0 0-1.599-1.599H3.733A1.6 1.6 0 0 0 2.134 6.97v15.992h-.533a1.6 1.6 0 0 0-1.599 1.599v2.132a1.6 1.6 0 0 0 1.599 1.599zM30.384 4.837a.533.533 0 1 1 0 1.067.533.533 0 0 1 0-1.067zM3.198 6.969c0-.294.239-.533.533-.533h21.322c.294 0 .533.239.533.533v2.239l-1.066 1.013V8.035a.533.533 0 0 0-.533-.533H4.797a.533.533 0 0 0-.533.533v13.326c0 .294.239.533.533.533h19.19a.533.533 0 0 0 .533-.533v-9.674l1.066-1.01v12.284H3.198V6.969zm4.798 6.93a1.598 1.598 0 1 0 1.107 2.749l1.853.93a.532.532 0 0 0 .636-.123l3.939-4.431 3.872 2.901a.533.533 0 0 0 .686-.039l3.365-3.188v8.131H5.33V8.569h18.124v2.66l-3.771 3.572-3.904-2.927a.533.533 0 0 0-.718.072l-3.993 4.493-1.493-.746c.011-.064.018-.129.02-.193a1.6 1.6 0 0 0-1.599-1.599zm.533 1.599a.533.533 0 1 1-1.067 0 .533.533 0 0 1 1.067 0zm3.198 8.529h5.331v.533a.533.533 0 0 1-.533.533h-4.264a.533.533 0 0 1-.533-.533v-.533zm-10.661.533c0-.294.239-.533.533-.533h9.062v.533a1.6 1.6 0 0 0 1.599 1.599h4.264a1.6 1.6 0 0 0 1.599-1.599v-.533h9.062c.294 0 .533.239.533.533v2.132a.533.533 0 0 1-.533.533H1.598a.533.533 0 0 1-.533-.533V24.56z" style="fill:var(--color1, #2e2f42)"/>
    </symbol>

    <!--  Customers -->
    <symbol id="icon-logo-yc" viewBox="0 0 58 32">
      <path d="m21.333 4.424 3.934 3.748-7.303-.004v18.185h19.088V19.4l3.93 3.744V4.424H21.333zM36.88 18.96 25.725 8.333H36.88V18.96zm-3.464 4.733H20.985v-12.23h.879v11.402h11.552v.828zm-9.952 6.028-.463-.953h-.382l.672 1.261v.735h.347v-.735l.672-1.261h-.381l-.463.953zm1.708-.952h.082l.754 1.996h-.362l-.161-.467h-.773l-.161.467h-.36l.751-1.996h.23zm-.366 1.255h.584l-.292-.847-.292.847zm2.412-.33-.043-.056c-.051-.068-.091-.133-.119-.196s-.043-.13-.043-.197c0-.104.021-.194.064-.269s.104-.133.182-.173a.587.587 0 0 1 .275-.062c.101 0 .189.021.262.062s.131.094.17.16c.04.067.06.14.06.219 0 .063-.011.121-.034.173s-.054.1-.095.143a.935.935 0 0 1-.14.122l-.139.101.395.466a.803.803 0 0 0 .086-.373h.285c0 .097-.01.189-.029.276a.88.88 0 0 1-.146.329l.292.345h-.382l-.116-.136a.772.772 0 0 1-.205.112.905.905 0 0 1-.31.052c-.133 0-.247-.024-.344-.073s-.172-.115-.225-.2a.547.547 0 0 1-.078-.292c0-.081.017-.153.051-.214s.08-.12.138-.173c.054-.049.116-.098.185-.147zm.164.2-.041.03c-.048.039-.085.077-.108.114a.337.337 0 0 0-.056.178c0 .058.012.111.037.159s.063.085.111.114a.368.368 0 0 0 .18.041.51.51 0 0 0 .323-.114l-.444-.522zm.079-.364.122-.082c.058-.038.099-.076.123-.112s.037-.084.037-.14c0-.047-.018-.091-.055-.132s-.088-.06-.155-.06a.203.203 0 0 0-.191.118.276.276 0 0 0-.023.116c0 .041.011.084.032.128s.05.088.086.136l.023.029zm3.491.585h-.343c-.01.087-.031.16-.063.221s-.077.105-.138.136a.517.517 0 0 1-.237.047c-.08 0-.149-.016-.207-.048s-.105-.077-.143-.136c-.037-.058-.064-.128-.082-.21s-.026-.174-.026-.274v-.169c0-.106.01-.2.029-.282s.05-.153.089-.21c.039-.057.088-.1.147-.129s.127-.044.206-.044c.096 0 .174.016.233.049s.104.079.134.14a.632.632 0 0 1 .06.221h.343c-.014-.133-.051-.252-.112-.355s-.145-.184-.255-.243a.854.854 0 0 0-.403-.088c-.125 0-.238.022-.339.066s-.185.107-.256.191c-.071.082-.126.181-.165.297s-.056.246-.056.389v.166c0 .143.018.273.055.389s.091.215.162.297c.07.081.155.144.254.189s.21.066.333.066c.161 0 .297-.029.41-.088s.2-.138.262-.24a.793.793 0 0 0 .11-.35zm1.904-.294v-.11c0-.151-.02-.286-.06-.404s-.096-.222-.169-.306c-.073-.085-.16-.149-.262-.193s-.214-.067-.337-.067c-.122 0-.234.022-.336.067s-.188.108-.262.193c-.073.084-.13.186-.17.306s-.06.254-.06.404v.11c0 .151.02.286.06.406s.099.222.173.306a.753.753 0 0 0 .598.259c.123 0 .236-.022.337-.066s.188-.109.26-.193c.073-.084.129-.186.169-.306s.059-.255.059-.406zm-.344-.112v.112c0 .111-.011.21-.033.296s-.052.159-.093.218a.408.408 0 0 1-.355.177c-.076 0-.143-.015-.203-.044s-.111-.075-.154-.133c-.042-.059-.074-.132-.096-.218s-.033-.185-.033-.296v-.112c0-.111.011-.21.033-.295s.053-.158.095-.215c.042-.058.093-.102.152-.132s.127-.045.203-.045.144.015.204.045c.06.029.111.073.152.132s.074.129.095.215c.022.085.033.183.033.295z"/>
    </symbol>
    <symbol id="icon-logo-tagline" viewBox="0 0 52 32">
      <path d="M25.057 3.407h-.068a8.285 8.285 0 0 0-.315-.011h-.228a12.154 12.154 0 0 0-.648.015 14.149 14.149 0 0 0-5.258 1.341l-.216.104v11.071l.506-.172c.444-.153.917-.29 1.407-.417 1.323-.34 2.682-.52 4.048-.538v1.455c-.181.001-.357.006-.532.015h-.042a16.227 16.227 0 0 0-3.114.478 15.786 15.786 0 0 0-3.71 1.446V3.996a14.876 14.876 0 0 1 3.892-1.583 14.94 14.94 0 0 1 3.668-.473h.214c.256.006.505.018.739.036.616.043 1.228.141 1.828.291v1.432a11.251 11.251 0 0 0-1.771-.267l-.036-.003a4.168 4.168 0 0 0-.362-.021zm2.519 1.464c.317.024.646.036.979.036a15.738 15.738 0 0 0 3.857-.495 15.93 15.93 0 0 0 3.709-1.447V16.91a14.917 14.917 0 0 1-3.893 1.583 14.987 14.987 0 0 1-3.668.472 11.203 11.203 0 0 1-2.783-.328V4.601c.215.05.436.095.662.133.369.062.759.108 1.138.136zm7.098.108-.506.17c-.465.156-.935.296-1.407.421a17.129 17.129 0 0 1-4.203.539c-.33 0-.634-.009-.927-.028l-.404-.027v11.388l.347.03c.321.028.653.042.987.042a13.488 13.488 0 0 0 3.31-.428 13.906 13.906 0 0 0 2.587-.929l.216-.104V4.979zM17.869 23.046a.75.75 0 0 0-.562-.228.842.842 0 0 0-.325.061.74.74 0 0 0-.416.421.825.825 0 0 0-.058.314v1.897a.88.88 0 0 0 .075.389.754.754 0 0 0 .19.254c.076.064.165.11.261.135.092.026.188.039.283.039a.792.792 0 0 0 .725-.495.77.77 0 0 0 .061-.303v-.212h-.496v.169a.424.424 0 0 1-.029.169.31.31 0 0 1-.072.107.366.366 0 0 1-.208.073.25.25 0 0 1-.233-.101.446.446 0 0 1-.066-.254v-1.769a.609.609 0 0 1 .061-.284.252.252 0 0 1 .243-.114.265.265 0 0 1 .222.107.408.408 0 0 1 .082.254v.164h.491v-.193a.9.9 0 0 0-.061-.332.789.789 0 0 0-.166-.267zM20.814 23.025a.855.855 0 0 0-1.122-.001.769.769 0 0 0-.192.266.875.875 0 0 0-.072.367v1.819a.886.886 0 0 0 .072.373c.045.098.11.185.192.254.076.07.165.125.262.16a.855.855 0 0 0 .86-.16.78.78 0 0 0 .259-.627v-1.819a.827.827 0 0 0-.259-.633zm-.231 2.452a.332.332 0 0 1-.099.263.363.363 0 0 1-.466 0 .33.33 0 0 1-.099-.263v-1.819a.332.332 0 0 1 .099-.263.363.363 0 0 1 .466 0 .33.33 0 0 1 .099.263v1.819zM24.684 26.29v-3.444h-.477l-.626 1.823h-.009l-.631-1.823h-.472v3.444h.492v-2.095h.009l.482 1.481h.245l.486-1.481h.009v2.095h.492zM27.479 23.087a.677.677 0 0 0-.278-.188 1.108 1.108 0 0 0-.357-.053h-.731v3.444h.491v-1.345h.253a.897.897 0 0 0 .443-.094.708.708 0 0 0 .269-.263.835.835 0 0 0 .113-.3c.019-.13.028-.261.027-.392a1.939 1.939 0 0 0-.048-.492.74.74 0 0 0-.181-.317zm-.253 1.05a.428.428 0 0 1-.046.179.278.278 0 0 1-.126.121.5.5 0 0 1-.232.043h-.224v-1.171h.253a.468.468 0 0 1 .221.043.278.278 0 0 1 .115.127.511.511 0 0 1 .043.192v.229c0 .08.005.163 0 .236h-.005zM29.804 22.845h-.402l-.759 3.444h.491l.144-.74h.669l.144.74h.491l-.778-3.444zm-.453 2.236.242-1.249h.009l.24 1.249h-.491zM32.975 24.92h-.009l-.741-2.075h-.472v3.444h.491v-2.071h.01l.75 2.071h.462v-3.444h-.491v2.075zM35.974 22.845l-.395 1.369h-.01l-.395-1.369h-.52l.674 1.989v1.456h.491v-1.456l.674-1.989h-.52zM16.5 27.262h.237v.664h.161v-.664h.235v-.136h-.632v.136zM18.488 27.126l-.31.8h.171l.066-.182h.319l.068.182h.175l-.317-.8h-.171zm-.025.483.109-.296.109.296h-.218zM20.454 27.631h.185v.103a.306.306 0 0 1-.19.067.204.204 0 0 1-.17-.076.336.336 0 0 1-.059-.209c0-.178.077-.267.23-.267a.171.171 0 0 1 .181.127l.158-.031c-.034-.156-.147-.235-.339-.235a.398.398 0 0 0-.279.103.385.385 0 0 0-.115.308.437.437 0 0 0 .102.3.393.393 0 0 0 .304.117.482.482 0 0 0 .339-.127v-.315h-.347v.135zM22.461 27.126h-.162v.8h.56v-.136h-.398v-.664zM24.159 27.126h-.162v.8h.162v-.8zM25.818 27.66l-.328-.534h-.157v.8h.151v-.523l.321.523h.161v-.8h-.148v.534zM27.318 27.574h.398v-.136h-.398v-.175h.429v-.136h-.591v.8h.607v-.136h-.445v-.216zM30.956 27.442h-.315v-.315h-.161v.8h.161v-.35h.315v.35h.161v-.8h-.161v.315zM32.465 27.574h.4v-.136h-.4v-.175h.43v-.136h-.591v.8h.606v-.136h-.445v-.216zM34.512 27.574c.139-.022.21-.095.21-.223a.19.19 0 0 0-.079-.178.45.45 0 0 0-.234-.047h-.339v.8h.161v-.334h.032a.214.214 0 0 1 .1.018.186.186 0 0 1 .057.058l.175.254h.192l-.097-.156a.562.562 0 0 0-.177-.192zm-.162-.111h-.119v-.201h.126a.427.427 0 0 1 .163.019.104.104 0 0 1 .035.084.102.102 0 0 1-.042.08.45.45 0 0 1-.163.019zM36.055 27.574h.398v-.136h-.398v-.175h.43v-.136h-.592v.8h.607v-.136h-.445v-.216z"/>
    </symbol>
    <symbol id="icon-logo-company" viewBox="0 0 58 32">
      <path d="M20.665 28.128a.075.075 0 0 1 .048.018l.124.117c-.096.094-.215.17-.349.221a1.372 1.372 0 0 1-.494.079 1.325 1.325 0 0 1-.465-.074 1.02 1.02 0 0 1-.35-.209.933.933 0 0 1-.226-.323 1.058 1.058 0 0 1-.079-.414 1.003 1.003 0 0 1 .085-.416.97.97 0 0 1 .24-.323c.106-.091.232-.163.372-.211.153-.051.315-.076.479-.074.152-.003.303.02.445.068.123.046.235.109.333.187l-.104.124a.116.116 0 0 1-.026.023.067.067 0 0 1-.042.009.112.112 0 0 1-.045-.013l-.056-.033-.077-.042a.865.865 0 0 0-.245-.074 1.036 1.036 0 0 0-.184-.013 1.021 1.021 0 0 0-.344.056.72.72 0 0 0-.445.405.83.83 0 0 0-.064.328.841.841 0 0 0 .064.334.717.717 0 0 0 .429.402c.101.036.21.054.319.053.063.001.126-.003.189-.011a.764.764 0 0 0 .409-.171.094.094 0 0 1 .059-.021zM24.245 27.543a.984.984 0 0 1-.084.412c-.051.119-.13.228-.233.32s-.228.163-.366.21a1.531 1.531 0 0 1-.942 0 1.098 1.098 0 0 1-.364-.211.958.958 0 0 1-.236-.323 1.055 1.055 0 0 1 0-.825.971.971 0 0 1 .236-.324c.104-.088.228-.157.364-.203.303-.101.639-.101.942 0 .138.048.262.119.366.211a.947.947 0 0 1 .318.733zm-.326 0a.88.88 0 0 0-.059-.331.686.686 0 0 0-.428-.404 1.113 1.113 0 0 0-.685 0 .743.743 0 0 0-.262.156.648.648 0 0 0-.167.248.954.954 0 0 0 0 .662.68.68 0 0 0 .429.403c.221.071.464.071.685 0a.69.69 0 0 0 .428-.403.86.86 0 0 0 .059-.331zM26.687 27.89l.032.074c.012-.026.023-.05.036-.074a.743.743 0 0 1 .04-.073l.792-1.23c.015-.021.029-.034.045-.038a.236.236 0 0 1 .065-.007h.234v2h-.277V27.009a.397.397 0 0 1 0-.069l-.797 1.247c-.01.019-.026.035-.047.046s-.044.017-.068.017h-.045c-.024 0-.048-.005-.068-.017s-.037-.027-.046-.046l-.82-1.255v1.606h-.268v-1.997h.234a.203.203 0 0 1 .065.007.085.085 0 0 1 .043.038l.809 1.231a.458.458 0 0 1 .04.071zM29.667 27.79v.749h-.31v-1.998h.691c.13-.002.261.013.386.044a.79.79 0 0 1 .273.124.512.512 0 0 1 .155.196.597.597 0 0 1 .053.256.55.55 0 0 1-.224.456.792.792 0 0 1-.274.132 1.302 1.302 0 0 1-.373.046l-.375-.005zm0-.214h.375a.878.878 0 0 0 .24-.03.534.534 0 0 0 .174-.086.38.38 0 0 0 .142-.3c.004-.056-.007-.111-.031-.163s-.061-.098-.108-.136a.674.674 0 0 0-.417-.107h-.375v.823zM33.833 28.542h-.245a.113.113 0 0 1-.108-.065l-.211-.483h-1.058l-.218.483a.105.105 0 0 1-.039.045.113.113 0 0 1-.07.02h-.245l.93-2.001h.322l.942 2.001zm-1.535-.742h.874l-.369-.814a1.417 1.417 0 0 1-.07-.188l-.036.105a.937.937 0 0 1-.034.085l-.366.813zM35.172 26.551a.127.127 0 0 1 .046.036l1.356 1.508v-1.553h.277v2.001h-.155a.155.155 0 0 1-.064-.012.186.186 0 0 1-.05-.037l-1.354-1.507a.794.794 0 0 1 0 .069V28.543h-.277v-2.001h.164c.019 0 .038.003.056.009zM39.136 27.747v.794h-.31v-.794l-.857-1.205h.277a.118.118 0 0 1 .067.017.179.179 0 0 1 .042.045l.536.777c.022.033.04.064.056.093s.028.057.039.085l.04-.086a.635.635 0 0 1 .053-.091l.528-.782a.2.2 0 0 1 .04-.042.103.103 0 0 1 .067-.02h.28l-.858 1.21zM26.534 23.184c.135.015.271.026.409.037 2.091-.799 3.86-2.107 5.086-3.761s1.854-3.579 1.806-5.535l-2.304-1.969c.469 2.083.249 4.237-.633 6.22s-2.393 3.717-4.363 5.008z"/>
      <path d="m25.711 23.093.062.011c2.105-1.287 3.71-3.083 4.608-5.157s1.046-4.331.426-6.478l-3.282-2.804c1.328 2.305 1.862 4.885 1.541 7.439s-1.484 4.978-3.354 6.99zM36.842 16.237c-.558 2.15-1.912 4.089-3.862 5.529-.569.423-1.184.8-1.835 1.125 1.588-.399 3.047-1.104 4.266-2.06s2.163-2.14 2.762-3.458l-1.331-1.136z"/>
      <path d="m36.32 15.921-1.895-1.619c-.036 1.846-.651 3.65-1.779 5.225s-2.73 2.862-4.638 3.729h.009c.425 0 .85-.022 1.272-.065 1.783-.622 3.359-1.611 4.585-2.88s2.067-2.777 2.445-4.39zM25.985 7.481l-2.261-1.934c-2.021.667-3.76 1.841-4.988 3.366s-1.888 3.332-1.895 5.183c.008 2.046.813 4.031 2.29 5.641s3.54 2.754 5.863 3.25c2.074-2.159 3.288-4.826 3.466-7.614s-.689-5.553-2.476-7.891zM41.544 15.623c-.008-2.427-1.14-4.753-3.149-6.469s-4.731-2.684-7.572-2.691a12.25 12.25 0 0 0-3.839.61l13.843 11.828a7.907 7.907 0 0 0 .716-3.278z"/>
    </symbol>
    <symbol id="icon-logo-fp" viewBox="0 0 58 32">
      <path d="M13.518 12.574h-.002c-1.339 0-2.425.979-2.425 2.186v.001c0 1.207 1.086 2.186 2.425 2.186h.002c1.339 0 2.425-.979 2.425-2.186v-.001c0-1.207-1.086-2.186-2.425-2.186zM31.417 11.875c-.004-1.677-.744-3.285-2.059-4.471S26.26 5.55 24.4 5.546c-1.861.003-3.644.671-4.96 1.857s-2.057 2.794-2.061 4.472v9.249s14.037-1.41 14.039-9.247v-.001zM6.175 24.16c.003 1.167.519 2.285 1.434 3.111s2.155 1.291 3.45 1.294c1.294-.003 2.534-.468 3.449-1.293s1.431-1.943 1.435-3.11v-6.435s-9.767.982-9.767 6.434zm4.884 1.153c-.253 0-.5-.068-.71-.194s-.374-.307-.471-.517-.122-.442-.073-.666c.049-.224.171-.429.35-.59s.407-.271.655-.316c.248-.044.505-.022.739.066s.433.235.574.425a1.074 1.074 0 0 1 .12 1.084 1.15 1.15 0 0 1-.277.376c-.119.108-.26.193-.415.251s-.322.088-.491.088v-.004zM19.991 23.239v2.395h-.493v-2.395h.493zm.954 1.023v.385h-1.089v-.385h1.089zm.115-1.023v.387h-1.204v-.387h1.204zm2.253 1.142v.114c0 .182-.025.345-.074.49s-.119.268-.209.37a.907.907 0 0 1-.322.232 1.025 1.025 0 0 1-.413.081c-.15 0-.288-.027-.413-.081a.925.925 0 0 1-.322-.232 1.074 1.074 0 0 1-.212-.37 1.524 1.524 0 0 1-.074-.49v-.114c0-.183.025-.346.074-.49.049-.145.119-.268.209-.37a.918.918 0 0 1 .322-.234c.125-.054.263-.081.413-.081.151 0 .289.027.413.081a.9.9 0 0 1 .322.234c.091.102.161.225.211.37.05.144.076.307.076.49zm-.498.113v-.117c0-.127-.012-.239-.035-.336s-.057-.178-.102-.243a.447.447 0 0 0-.387-.199.441.441 0 0 0-.385.199c-.044.066-.077.147-.1.243s-.035.208-.035.336v.117c0 .126.012.238.035.335a.75.75 0 0 0 .102.245c.045.066.1.116.165.15s.139.051.222.051a.44.44 0 0 0 .385-.201.771.771 0 0 0 .1-.245c.023-.098.035-.209.035-.335zm2.1.513a.319.319 0 0 0-.02-.115.213.213 0 0 0-.069-.095c-.034-.03-.082-.059-.143-.087s-.141-.058-.238-.089a3.104 3.104 0 0 1-.309-.118 1.313 1.313 0 0 1-.257-.153.68.68 0 0 1-.174-.206.562.562 0 0 1-.062-.271c0-.1.022-.19.066-.271a.637.637 0 0 1 .184-.211.881.881 0 0 1 .28-.137c.109-.032.227-.048.357-.048.177 0 .331.032.462.095s.234.151.306.262c.073.111.11.237.11.38h-.49a.374.374 0 0 0-.044-.184.3.3 0 0 0-.132-.127.466.466 0 0 0-.22-.046.518.518 0 0 0-.214.039.28.28 0 0 0-.128.104.252.252 0 0 0-.043.145c0 .041.01.077.03.11.021.033.052.064.092.092s.09.055.15.081c.059.025.128.05.206.074.13.039.245.084.344.133.1.049.183.105.25.166a.61.61 0 0 1 .202.474c0 .104-.02.197-.061.28s-.099.152-.176.209-.168.1-.275.13c-.106.03-.225.044-.357.044a1.34 1.34 0 0 1-.35-.046 1.056 1.056 0 0 1-.314-.143c-.093-.064-.168-.145-.224-.243s-.084-.215-.084-.35h.495c0 .075.012.138.035.189s.055.093.097.125a.41.41 0 0 0 .151.069.842.842 0 0 0 .194.021.533.533 0 0 0 .211-.036.26.26 0 0 0 .123-.1.267.267 0 0 0 .041-.145zm1.9-1.768v2.395h-.492v-2.395h.492zm.737 0v.387h-1.954v-.387h1.954zm1.888 2.01v.385h-1.275v-.385h1.275zm-1.114-2.01v2.395h-.493v-2.395h.493zm.948.976v.375h-1.109v-.375h1.109zm.164-.976v.387h-1.273v-.387h1.273zm.29 0h.893c.183 0 .34.027.472.082.133.055.235.136.306.243s.107.24.107.396a.766.766 0 0 1-.066.331.628.628 0 0 1-.183.229.945.945 0 0 1-.275.145l-.156.082h-.776l-.003-.385h.577c.087 0 .158-.015.215-.046s.1-.073.128-.128a.39.39 0 0 0 .044-.191c0-.077-.014-.143-.043-.199s-.072-.099-.13-.128-.131-.044-.219-.044h-.4v2.008h-.493v-2.395zm1.339 2.395-.546-1.067.521-.003.553 1.048v.023h-.528zm2.59-.854h-.61v-.385h.61a.495.495 0 0 0 .23-.046c.059-.032.102-.076.13-.132s.041-.119.041-.189c0-.071-.014-.138-.041-.199s-.071-.111-.13-.148-.136-.056-.23-.056h-.439v2.008h-.493v-2.395h.933c.187 0 .348.034.482.102a.728.728 0 0 1 .416.684c0 .155-.036.288-.107.401s-.174.2-.309.262a1.155 1.155 0 0 1-.482.092zm2.845.469v.385h-1.275v-.385h1.275zm-1.113-2.01v2.395h-.493v-2.395h.493zm.947.976v.375h-1.109v-.375h1.109zm.165-.976v.387h-1.273v-.387h1.273zm1.393 0v2.395h-.492v-2.395h.492zm.737 0v.387h-1.954v-.387h1.954zm1.888 2.01v.385h-1.275v-.385h1.275zm-1.114-2.01v2.395h-.493v-2.395h.493zm.948.976v.375h-1.109v-.375h1.109zm.164-.976v.387h-1.273v-.387h1.273zm.29 0h.893c.183 0 .34.027.472.082.133.055.235.136.306.243s.107.24.107.396a.766.766 0 0 1-.066.331.628.628 0 0 1-.183.229.945.945 0 0 1-.275.145l-.156.082h-.776l-.003-.385h.577c.087 0 .158-.015.215-.046s.1-.073.128-.128a.39.39 0 0 0 .044-.191c0-.077-.014-.143-.043-.199s-.072-.099-.13-.128a.475.475 0 0 0-.219-.044h-.4v2.008h-.493v-2.395zm1.339 2.395-.546-1.067.521-.003.553 1.048v.023h-.528zm2.065-.627a.319.319 0 0 0-.02-.115.213.213 0 0 0-.069-.095c-.034-.03-.082-.059-.143-.087s-.141-.058-.238-.089a3.104 3.104 0 0 1-.309-.118 1.313 1.313 0 0 1-.257-.153.667.667 0 0 1-.174-.206.562.562 0 0 1-.062-.271c0-.1.022-.19.066-.271a.637.637 0 0 1 .184-.211.881.881 0 0 1 .28-.137c.109-.032.228-.048.357-.048.176 0 .331.032.462.095s.234.151.306.262c.073.111.11.237.11.38h-.49a.374.374 0 0 0-.044-.184.3.3 0 0 0-.132-.127.466.466 0 0 0-.22-.046.515.515 0 0 0-.214.039.28.28 0 0 0-.128.104.252.252 0 0 0-.043.145c0 .041.01.077.03.11.021.033.052.064.092.092s.09.055.15.081c.059.025.128.05.206.074.13.039.245.084.344.133.1.049.183.105.25.166a.61.61 0 0 1 .202.474c0 .104-.02.197-.061.28s-.099.152-.176.209-.168.1-.275.13c-.106.03-.225.044-.357.044a1.34 1.34 0 0 1-.35-.046 1.056 1.056 0 0 1-.314-.143c-.093-.064-.168-.145-.224-.243s-.084-.215-.084-.35h.495c0 .075.011.138.035.189s.055.093.097.125a.41.41 0 0 0 .151.069.842.842 0 0 0 .194.021.53.53 0 0 0 .211-.036.26.26 0 0 0 .123-.1.267.267 0 0 0 .041-.145z"/>
    </symbol>
    <symbol id="icon-logo-brand" viewBox="0 0 58 32">
      <path d="M15.041 25.405a.788.788 0 0 1 .207.543c.007.129-.018.257-.074.376s-.14.225-.248.31a1.507 1.507 0 0 1-.934.251H12.35v-3.443h1.608c.318-.019.633.062.891.229.104.078.186.177.24.289s.079.233.072.355a.745.745 0 0 1-.187.526.888.888 0 0 1-.489.269c.218.036.414.14.555.294zm-1.926-.519h.688c.156.01.311-.03.437-.114a.395.395 0 0 0 .147-.337.407.407 0 0 0-.146-.336.713.713 0 0 0-.45-.116h-.676v.903zm1.192 1.32c.055-.043.099-.097.127-.158s.04-.126.036-.192a.408.408 0 0 0-.166-.353.76.76 0 0 0-.467-.124h-.721v.947h.73a.785.785 0 0 0 .461-.119zM18.329 26.885l-.895-1.346h-.336v1.346h-.77v-3.443h1.457c.367-.023.73.082 1.014.293.204.187.326.433.346.694s-.065.52-.238.73c-.18.185-.425.309-.695.35l.953 1.376h-.837zm-1.231-1.814h.63c.437 0 .656-.174.656-.521a.485.485 0 0 0-.16-.387.736.736 0 0 0-.495-.14h-.637l.007 1.048zM22.536 26.192h-1.534l-.271.693h-.807l1.409-3.404h.872l1.403 3.404h-.807l-.265-.693zm-.205-.521-.561-1.453-.56 1.453h1.121zM27.803 26.885h-.764l-1.713-2.341v2.341h-.762v-3.443h.762l1.713 2.355v-2.355h.764v3.443zM32.163 26.061c-.158.26-.399.471-.691.607a2.463 2.463 0 0 1-1.074.217h-1.36v-3.443h1.36c.372-.009.741.064 1.074.212.293.133.533.342.691.6.157.28.239.589.239.903s-.082.623-.239.903zm-.874-.082c.218-.229.338-.52.338-.822s-.12-.593-.338-.822a1.429 1.429 0 0 0-.957-.293h-.531v2.228h.531c.349.02.693-.085.957-.293zM23.014 4.293s9.862 3.352 9.653 8.202v8.204s-9.855-3.354-9.649-8.204l-.004-8.202zM41.453 18.779a14.464 14.464 0 0 1 6.266-2.079v-2.568c-2.591.899-4.79 2.529-6.266 4.647z"/>
      <path d="M40.334 19.552c1.525-2.764 4.167-4.896 7.385-5.959v-7.4s-14.045 4.775-13.748 11.682v11.681s.626-.214 1.61-.614c0-.373 0-.75.045-1.129.291-3.207 1.984-6.178 4.708-8.261z"/>
      <path d="M38.999 23.892c.074-.81.238-1.611.491-2.392-1.696 1.799-2.723 4.031-2.937 6.383a9.259 9.259 0 0 0-.037.673 42.164 42.164 0 0 0 2.701-1.282 10.93 10.93 0 0 1-.219-3.382zM39.557 23.934a10.437 10.437 0 0 0 .174 3.063c3.837-2.067 8.149-5.261 7.983-9.121v-.336c-2.742.276-5.307 1.355-7.301 3.071a10.575 10.575 0 0 0-.856 3.323z"/>
    </symbol>
    <symbol id="icon-logo-taghere" viewBox="0 0 58 32">
      <path d="M30.052 15.901a1.656 1.656 0 0 1-.34-1.118v-1.621c0-.497.113-.875.338-1.133s.613-.387 1.162-.386c.516 0 .882.11 1.099.33.236.281.351.624.325.97v.381h-.923v-.386a1.998 1.998 0 0 0-.027-.378.364.364 0 0 0-.132-.224.532.532 0 0 0-.335-.087.572.572 0 0 0-.352.092.435.435 0 0 0-.153.247 1.865 1.865 0 0 0-.036.401v1.968c-.015.19.026.38.119.553.046.059.11.105.184.134s.157.04.238.031a.508.508 0 0 0 .327-.089.398.398 0 0 0 .138-.239c.022-.131.031-.262.029-.394v-.399h.923v.365c.026.361-.086.719-.319 1.019-.212.241-.573.361-1.105.361s-.933-.129-1.16-.396zM33.895 15.917c-.233-.252-.35-.62-.35-1.107v-1.706c0-.482.117-.846.35-1.094s.623-.371 1.17-.369c.543 0 .931.123 1.164.369.233.247.352.612.352 1.094v1.706c0 .482-.118.851-.356 1.105s-.623.381-1.16.381-.935-.129-1.17-.379zm1.6-.409a.944.944 0 0 0 .111-.505v-2.088a.928.928 0 0 0-.109-.495c-.047-.06-.112-.107-.189-.136s-.161-.039-.243-.029c-.083-.01-.167 0-.244.029s-.142.076-.19.136a.91.91 0 0 0-.111.495v2.098a.926.926 0 0 0 .111.505c.054.053.12.096.195.125a.656.656 0 0 0 .474 0 .573.573 0 0 0 .195-.125v-.01zM37.691 11.692h.994l.747 3.147.765-3.147h.967l.097 4.542h-.715l-.076-3.157-.738 3.157h-.573l-.765-3.168-.071 3.168H37.6l.09-4.542zM42.376 11.692h1.548c.892 0 1.338.43 1.338 1.29 0 .824-.47 1.235-1.409 1.234h-.528v2.019h-.956l.006-4.542zm1.323 1.941c.094.01.19.003.281-.022s.174-.066.245-.122a.736.736 0 0 0 .138-.513 1.398 1.398 0 0 0-.046-.412.352.352 0 0 0-.191-.216.993.993 0 0 0-.426-.073h-.371v1.357h.371zM46.641 11.692h1.026l1.053 4.542h-.891l-.208-1.047h-.916l-.214 1.047h-.904l1.053-4.542zm.877 2.968-.357-1.907-.357 1.907h.715zM49.571 11.692h.669l1.281 2.591v-2.591h.793v4.542h-.636l-1.288-2.705v2.705h-.82l.002-4.542zM54.172 14.502l-1.065-2.804h.896l.65 1.801.61-1.801h.877l-1.051 2.804v1.732h-.917v-1.732zM31.527 18.22v.238h-.78v1.846h-.327v-1.846h-.784v-.238h1.89zM33.972 20.303h-.252a.116.116 0 0 1-.071-.02.108.108 0 0 1-.042-.048l-.226-.495h-1.082l-.226.495a.13.13 0 0 1-.034.056.116.116 0 0 1-.071.02h-.252l.956-2.083h.333l.967 2.075zm-1.583-.774h.902l-.382-.848a1.586 1.586 0 0 1-.071-.196l-.036.111-.034.087-.379.846zM35.619 20.098c.06.003.12.003.18 0a1.277 1.277 0 0 0 .291-.063c.042-.015.084-.033.128-.051v-.468h-.382c-.009 0-.019-.001-.028-.004a.07.07 0 0 1-.039-.03.038.038 0 0 1-.005-.021v-.16h.742v.798a1.389 1.389 0 0 1-.403.17c-.078.02-.158.034-.239.043a2.894 2.894 0 0 1-.279.013 1.454 1.454 0 0 1-.482-.078 1.181 1.181 0 0 1-.382-.218 1.022 1.022 0 0 1-.247-.33 1.048 1.048 0 0 1-.088-.432.958.958 0 0 1 .333-.765c.109-.094.239-.167.382-.216.164-.053.337-.079.512-.078.089 0 .178.006.266.018a1.315 1.315 0 0 1 .418.135c.059.033.114.069.166.109l-.092.129c-.007.012-.018.022-.031.029s-.028.011-.044.011a.12.12 0 0 1-.059-.017c-.029-.013-.059-.03-.094-.049a.813.813 0 0 0-.128-.056 1.167 1.167 0 0 0-.419-.064 1.122 1.122 0 0 0-.369.058.73.73 0 0 0-.459.424.976.976 0 0 0 0 .694.747.747 0 0 0 .191.262.822.822 0 0 0 .279.165c.122.036.25.05.378.041zM38.666 20.065h1.044v.238h-1.363V18.22h.327l-.008 1.846zM40.796 20.303h-.327V18.22h.327v2.083zM42.011 18.23a.17.17 0 0 1 .05.038l1.397 1.57a.457.457 0 0 1 0-.074v-1.552h.285v2.091h-.164a.144.144 0 0 1-.071-.012.185.185 0 0 1-.052-.04l-1.395-1.569v1.62h-.273v-2.083h.17c.018 0 .037.003.053.01zM46.149 18.22v.229h-1.158v.688h.938v.221h-.938v.711h1.158v.229h-1.495V18.22h1.495zM11.899 5.355l14.513 3.556v12.461l-14.513-3.554V5.356zm-.931-1.062v14.13l16.373 4.013V8.308L10.968 4.294z"/>
      <path d="M19.743 28.995 3.368 24.979V10.851l16.375 4.014v14.13zM11.24 5.195l14.324 3.511-6.092 5.258-14.326-3.513 6.094-5.256zm-.272-.902-7.6 6.558 16.375 4.014 7.598-6.558-16.373-4.014zM20.665 28.2l6.677-5.763-6.677-1.638v7.4z"/>
    </symbol>

    <!--  Socials -->
    <symbol id="icon-facebook" viewBox="0 0 32 32">
      <path d="M21.329 5.313h2.921V.225C23.746.156 22.013 0 19.994 0c-4.212 0-7.097 2.649-7.097 7.519V12H8.249v5.688h4.648V32h5.699V17.689h4.46l.708-5.688h-5.169V8.082c.001-1.644.444-2.769 2.735-2.769z"/>
    </symbol>
    <symbol id="icon-instagram" viewBox="0 0 32 32">
      <path d="M31.969 9.408c-.075-1.7-.35-2.869-.744-3.882a7.803 7.803 0 0 0-1.85-2.838A7.867 7.867 0 0 0 26.543.844C25.524.45 24.361.175 22.661.1 20.948.019 20.404 0 16.06 0s-4.888.019-6.595.094c-1.7.075-2.869.35-3.882.744a7.803 7.803 0 0 0-2.838 1.85A7.867 7.867 0 0 0 .901 5.52C.507 6.539.232 7.702.157 9.402c-.081 1.713-.1 2.257-.1 6.601s.019 4.888.094 6.595c.075 1.7.35 2.869.744 3.882a7.895 7.895 0 0 0 1.85 2.838 7.867 7.867 0 0 0 2.832 1.844c1.019.394 2.182.669 3.882.744 1.706.075 2.25.094 6.595.094s4.888-.018 6.595-.094c1.7-.075 2.869-.35 3.882-.744a8.181 8.181 0 0 0 4.682-4.682c.394-1.019.669-2.182.744-3.882.075-1.707.094-2.251.094-6.595s-.006-4.888-.081-6.595zm-2.882 13.065c-.069 1.563-.331 2.407-.55 2.969a5.307 5.307 0 0 1-3.038 3.038c-.563.219-1.413.481-2.969.55-1.688.075-2.194.094-6.464.094s-4.782-.018-6.464-.094c-1.563-.069-2.407-.331-2.969-.55a4.926 4.926 0 0 1-1.838-1.194 4.974 4.974 0 0 1-1.194-1.838c-.219-.563-.481-1.413-.55-2.969-.075-1.688-.094-2.194-.094-6.464s.019-4.782.094-6.464c.069-1.563.331-2.407.55-2.969a4.868 4.868 0 0 1 1.2-1.838A4.974 4.974 0 0 1 6.639 3.55c.563-.219 1.413-.481 2.969-.55 1.688-.075 2.194-.094 6.464-.094 4.276 0 4.782.019 6.464.094 1.563.069 2.407.331 2.969.55a4.914 4.914 0 0 1 1.838 1.194 4.974 4.974 0 0 1 1.194 1.838c.219.563.481 1.413.55 2.969.075 1.688.094 2.194.094 6.464s-.019 4.77-.094 6.457z"/>
      <path d="M16.059 7.782c-4.538 0-8.22 3.682-8.22 8.22s3.682 8.22 8.22 8.22c4.539 0 8.22-3.682 8.22-8.22s-3.682-8.22-8.22-8.22zm0 13.553a5.333 5.333 0 0 1 0-10.664 5.333 5.333 0 0 1 0 10.664zM26.524 7.457a1.919 1.919 0 1 1-3.838 0 1.919 1.919 0 0 1 3.838 0z"/>
    </symbol>
    <symbol id="icon-twitter" viewBox="0 0 32 32">
      <path d="M32 6.078c-1.19.522-2.458.868-3.78 1.036a6.523 6.523 0 0 0 2.886-3.626 13.11 13.11 0 0 1-4.16 1.588A6.574 6.574 0 0 0 22.154 3c-3.632 0-6.556 2.948-6.556 6.562 0 .52.044 1.02.152 1.496-5.454-.266-10.28-2.88-13.522-6.862a6.605 6.605 0 0 0-.898 3.316 6.57 6.57 0 0 0 2.914 5.452 6.479 6.479 0 0 1-2.964-.808v.072c0 3.188 2.274 5.836 5.256 6.446a6.548 6.548 0 0 1-1.72.216 5.8 5.8 0 0 1-1.242-.112c.85 2.598 3.262 4.508 6.13 4.57a13.182 13.182 0 0 1-8.134 2.798c-.538 0-1.054-.024-1.57-.09A18.469 18.469 0 0 0 10.064 29c12.072 0 18.672-10 18.672-18.668 0-.29-.01-.57-.024-.848A13.087 13.087 0 0 0 32 6.078z"/>
    </symbol>
    <symbol id="icon-linkedin" viewBox="0 0 32 32">
      <path d="M31.992 32v-.001H32V20.263c0-5.741-1.236-10.164-7.948-10.164-3.227 0-5.392 1.771-6.276 3.449h-.093v-2.913h-6.364v21.364h6.627V21.42c0-2.785.528-5.479 3.977-5.479 3.399 0 3.449 3.179 3.449 5.657v10.401h6.62zM.528 10.636h6.635V32H.528V10.636zM3.843 0C1.722 0 0 1.721 0 3.843s1.721 3.879 3.843 3.879c2.121 0 3.843-1.757 3.843-3.879A3.846 3.846 0 0 0 3.843 0z"/>
    </symbol>

    <!-- Modal -->
    <symbol id="icon-email" viewBox="0 0 24 32">
      <path d="M20 8H4c-1.1 0-1.99.9-1.99 2L2 22c0 1.1.9 2 2 2h16c1.1 0 2-.9 2-2V10c0-1.1-.9-2-2-2zm-.4 4.25-7.07 4.42c-.32.2-.74.2-1.06 0L4.4 12.25a.85.85 0 1 1 .9-1.44L12 15l6.7-4.19a.85.85 0 1 1 .9 1.44z"/>
    </symbol>
    <symbol id="icon-person" viewBox="0 0 32 32">
      <path d="M16 16c2.947 0 5.333-2.387 5.333-5.333S18.946 5.334 16 5.334c-2.947 0-5.333 2.387-5.333 5.333S13.054 16 16 16zm0 2.667c-3.56 0-10.667 1.787-10.667 5.333v1.333c0 .733.6 1.333 1.333 1.333h18.667c.733 0 1.333-.6 1.333-1.333V24c0-3.547-7.107-5.333-10.667-5.333z"/>
    </symbol>
    <symbol id="icon-phone" viewBox="0 0 24 32">
      <path d="m19.635 18.487-2.451-.28a1.92 1.92 0 0 0-1.582.55l-1.775 1.775a14.514 14.514 0 0 1-6.359-6.359l1.785-1.785c.415-.415.618-.994.55-1.582l-.28-2.432a1.931 1.931 0 0 0-1.92-1.708H5.934c-1.09 0-1.997.907-1.93 1.997.511 8.24 7.102 14.821 15.332 15.332 1.09.068 1.997-.839 1.997-1.93v-1.669a1.913 1.913 0 0 0-1.698-1.911z"/>
    </symbol>
    <!-- footer -->
    <symbol id="icon-frame" viewBox="0 0 32 32">
      <path d="M32 2.667l-32 15 10.227 3.156 15.773-12.323-11.998 13.488 0.010 0.003-0.012-0.003v7.345l5.735-5.576 7.265 2.242 5-23.333z"></path>
    </symbol>
  </defs>
</svg>
